<svg xmlns="http://www.w3.org/2000/svg" viewBox="0 0 375 500">
  <rect width="375" height="500" fill="#ff8fa5"/>
  <g transform="translate(120 80)">
    <path d="M67.5 0C30.2 0 0 30.2 0 67.5c0 54 67.5 144 67.5 144S135 121.5 135 67.5C135 30.2 104.8 0 67.5 0z" fill="#000"/>
    <path d="M67.5 32c-13-11-34-11-47 0-13 11-13 30 0 41l47 47 47-47c13-11 13-30 0-41-13-11-34-11-47 0z" fill="#ff8fa5"/>
  </g>
  <text x="50%" y="380" text-anchor="middle" font-family="Arial, sans-serif" font-size="72" fill="#000">PutPing</text>
</svg>
